<svg width="171" height="37" viewBox="0 0 171 37" fill="none" xmlns="http://www.w3.org/2000/svg">
<g id="Archesky">
<path id="Vector" d="M170.205 7.05597L157.857 36.432H152.493L156.813 26.496L148.821 7.05597H154.473L159.621 20.988L164.841 7.05597H170.205Z" fill="#424241"/>
<path id="Vector_2" d="M141.909 27L135.141 18.504V27H130.101V0.359985H135.141V15.516L141.837 7.05599H148.389L139.605 17.064L148.461 27H141.909Z" fill="#424241"/>
<path id="Vector_3" d="M118.116 27.324C116.484 27.324 115.02 27.036 113.724 26.46C112.428 25.86 111.396 25.056 110.628 24.048C109.884 23.04 109.476 21.924 109.404 20.7H114.48C114.576 21.468 114.948 22.104 115.596 22.608C116.268 23.112 117.096 23.364 118.08 23.364C119.04 23.364 119.784 23.172 120.312 22.788C120.864 22.404 121.14 21.912 121.14 21.312C121.14 20.664 120.804 20.184 120.132 19.872C119.484 19.536 118.44 19.176 117 18.792C115.512 18.432 114.288 18.06 113.328 17.676C112.392 17.292 111.576 16.704 110.88 15.912C110.208 15.12 109.872 14.052 109.872 12.708C109.872 11.604 110.184 10.596 110.808 9.68399C111.456 8.77199 112.368 8.052 113.544 7.524C114.744 6.996 116.148 6.73199 117.756 6.73199C120.132 6.73199 122.028 7.332 123.444 8.532C124.86 9.708 125.64 11.304 125.784 13.32H120.96C120.888 12.528 120.552 11.904 119.952 11.448C119.376 10.968 118.596 10.728 117.612 10.728C116.7 10.728 115.992 10.896 115.488 11.232C115.008 11.568 114.768 12.036 114.768 12.636C114.768 13.308 115.104 13.824 115.776 14.184C116.448 14.52 117.492 14.868 118.908 15.228C120.348 15.588 121.536 15.96 122.472 16.344C123.408 16.728 124.212 17.328 124.884 18.144C125.58 18.936 125.94 19.992 125.964 21.312C125.964 22.464 125.64 23.496 124.992 24.408C124.368 25.32 123.456 26.04 122.256 26.568C121.08 27.072 119.7 27.324 118.116 27.324Z" fill="#424241"/>
<path id="Vector_4" d="M106.805 16.596C106.805 17.316 106.757 17.964 106.661 18.54H92.0812C92.2012 19.98 92.7052 21.108 93.5932 21.924C94.4812 22.74 95.5732 23.148 96.8692 23.148C98.7412 23.148 100.073 22.344 100.865 20.736H106.301C105.725 22.656 104.621 24.24 102.989 25.488C101.357 26.712 99.3532 27.324 96.9772 27.324C95.0572 27.324 93.3292 26.904 91.7932 26.064C90.2812 25.2 89.0932 23.988 88.2292 22.428C87.3892 20.868 86.9692 19.068 86.9692 17.028C86.9692 14.964 87.3892 13.152 88.2292 11.592C89.0692 10.032 90.2452 8.832 91.7572 7.992C93.2692 7.152 95.0092 6.73199 96.9772 6.73199C98.8732 6.73199 100.565 7.13999 102.053 7.95599C103.565 8.77199 104.729 9.936 105.545 11.448C106.385 12.936 106.805 14.652 106.805 16.596ZM101.585 15.156C101.561 13.86 101.093 12.828 100.181 12.06C99.2692 11.268 98.1532 10.872 96.8332 10.872C95.5852 10.872 94.5292 11.256 93.6652 12.024C92.8252 12.768 92.3092 13.812 92.1172 15.156H101.585Z" fill="#424241"/>
<path id="Vector_5" d="M75.6965 6.76798C77.2085 6.76798 78.5525 7.10398 79.7285 7.77598C80.9045 8.42398 81.8165 9.39598 82.4645 10.692C83.1365 11.964 83.4725 13.5 83.4725 15.3V27H78.4325V15.984C78.4325 14.4 78.0365 13.188 77.2445 12.348C76.4525 11.484 75.3725 11.052 74.0045 11.052C72.6125 11.052 71.5085 11.484 70.6925 12.348C69.9005 13.188 69.5045 14.4 69.5045 15.984V27H64.4645V0.359985H69.5045V9.53998C70.1525 8.67598 71.0165 8.00399 72.0965 7.52399C73.1765 7.01999 74.3765 6.76798 75.6965 6.76798Z" fill="#424241"/>
<path id="Vector_6" d="M41.5122 17.028C41.5122 14.964 41.9322 13.164 42.7722 11.628C43.6122 10.068 44.7762 8.868 46.2642 8.028C47.7522 7.164 49.4562 6.73199 51.3762 6.73199C53.8482 6.73199 55.8882 7.35599 57.4962 8.60399C59.1282 9.828 60.2202 11.556 60.7722 13.788H55.3362C55.0482 12.924 54.5562 12.252 53.8602 11.772C53.1882 11.268 52.3482 11.016 51.3402 11.016C49.9002 11.016 48.7602 11.544 47.9202 12.6C47.0802 13.632 46.6602 15.108 46.6602 17.028C46.6602 18.924 47.0802 20.4 47.9202 21.456C48.7602 22.488 49.9002 23.004 51.3402 23.004C53.3802 23.004 54.7122 22.092 55.3362 20.268H60.7722C60.2202 22.428 59.1282 24.144 57.4962 25.416C55.8642 26.688 53.8242 27.324 51.3762 27.324C49.4562 27.324 47.7522 26.904 46.2642 26.064C44.7762 25.2 43.6122 24 42.7722 22.464C41.9322 20.904 41.5122 19.092 41.5122 17.028Z" fill="#424241"/>
<path id="Vector_7" d="M33.2935 10.152C33.9415 9.09598 34.7815 8.26798 35.8135 7.66798C36.8695 7.06798 38.0695 6.76797 39.4135 6.76797V12.06H38.0815C36.4975 12.06 35.2975 12.432 34.4815 13.176C33.6895 13.92 33.2935 15.216 33.2935 17.064V27H28.2535V7.05598H33.2935V10.152Z" fill="#424241"/>
<path id="Vector_8" d="M17.892 22.212H7.88404L6.22804 27H0.936035L9.97204 1.836H15.84L24.876 27H19.548L17.892 22.212ZM16.524 18.18L12.888 7.668L9.25204 18.18H16.524Z" fill="#424241"/>
</g>
</svg>
