<svg width="71" height="80" viewBox="0 0 71 80" fill="none" xmlns="http://www.w3.org/2000/svg">
<rect x="0.553955" width="70.2158" height="80" fill="#5D4D66"/>
<path d="M42.2598 54.8382H29.0639C28.2067 54.8382 27.5118 55.6686 27.5118 56.6929C27.5118 57.7172 28.2067 58.5476 29.0639 58.5476H42.2598C43.117 58.5476 43.8119 57.7172 43.8119 56.6929C43.8119 55.6686 43.117 54.8382 42.2598 54.8382Z" fill="#5D4D66"/>
<path d="M25.0034 34.9986H22.4964V41.8748H25.0034V34.9986Z" fill="#5D4D66"/>
<path d="M30.0188 29.5508H27.5118V41.8723H30.0188V29.5508Z" fill="#5D4D66"/>
<path d="M35.0318 32.4093H32.5248V41.8745H35.0318V32.4093Z" fill="#5D4D66"/>
<path d="M44.4376 25.2651C44.4278 25.2655 44.418 25.266 44.4082 25.2665L44.3629 31.532L48.8004 35.7717C49.6281 34.6219 50.0803 33.1808 50.08 31.6938C50.08 29.9888 49.4856 28.3536 48.4274 27.148C47.3692 25.9424 45.9341 25.2651 44.4376 25.2651L44.4376 25.2651Z" fill="#5D4D66"/>
<path d="M19.9863 20.7338C18.9329 20.7338 18.1079 21.7668 18.1079 22.9702V32.0398C18.1092 32.4322 18.3881 32.7498 18.7324 32.7513C19.0767 32.7499 19.3555 32.4322 19.3569 32.0398V22.9702C19.3569 22.486 19.6503 22.1638 19.9863 22.1638H51.332C51.668 22.1638 51.9614 22.486 51.9614 22.9702V44.974H19.3569V34.9975C19.3556 34.6052 19.0767 34.2875 18.7324 34.286C18.3881 34.2874 18.1093 34.6052 18.1079 34.9975V48.8594C18.1079 50.0627 18.9329 51.1013 19.9863 51.1013H31.9765L31.0949 54.1217H29.0622C27.8493 54.1217 26.8826 55.297 26.8826 56.6901C26.8826 58.0833 27.8493 59.2627 29.0622 59.2627H42.2561C43.469 59.2627 44.4357 58.0833 44.4357 56.6901C44.4357 55.297 43.469 54.1217 42.2561 54.1217H40.2283L39.3467 51.1013H51.332C52.3854 51.1013 53.2153 50.0627 53.2153 48.8594V22.9702C53.2153 21.7668 52.3854 20.7338 51.332 20.7338H19.9863ZM44.4357 24.5522C40.9806 24.5522 38.1651 27.7545 38.1651 31.691C38.1651 35.6276 40.9806 38.8354 44.4357 38.8354C47.8908 38.8354 50.7075 35.6276 50.7075 31.691C50.7075 27.7545 47.8908 24.5522 44.4357 24.5522ZM43.8112 26.0297V30.9795H39.4618C39.7431 28.3877 41.5358 26.3495 43.8112 26.0297ZM45.0663 26.0297C47.5439 26.3813 49.4537 28.7705 49.4537 31.691C49.4537 32.8562 49.1471 33.9363 48.6247 34.8384L45.0663 31.3646V26.0297ZM27.512 28.8394C27.1656 28.8379 26.8838 29.1563 26.8826 29.5509V41.1555H25.6275V34.9975C25.6263 34.6049 25.3476 34.2874 25.003 34.286H22.4953C22.1489 34.2845 21.8671 34.6029 21.8659 34.9975V41.1555H21.2414C21.1584 41.155 21.0762 41.1732 20.9995 41.2091C20.9228 41.245 20.853 41.2979 20.7944 41.3647C20.7357 41.4315 20.6893 41.511 20.6578 41.5984C20.6263 41.6858 20.6103 41.7795 20.6108 41.874C20.6111 41.9679 20.6277 42.0609 20.6595 42.1475C20.6914 42.2341 20.738 42.3127 20.7966 42.3788C20.8551 42.4449 20.9246 42.4971 21.0009 42.5326C21.0772 42.5681 21.159 42.5861 21.2414 42.5855H36.2867C36.369 42.5859 36.4506 42.5678 36.5268 42.5322C36.603 42.4967 36.6723 42.4443 36.7307 42.3783C36.7892 42.3122 36.8356 42.2337 36.8674 42.1471C36.8992 42.0606 36.9158 41.9678 36.9161 41.874C36.9166 41.7796 36.9006 41.6861 36.8692 41.5987C36.8378 41.5114 36.7914 41.432 36.7329 41.3652C36.6744 41.2984 36.6048 41.2455 36.5282 41.2095C36.4516 41.1735 36.3696 41.1552 36.2867 41.1555H35.6622V32.4081C35.6635 32.0115 35.3798 31.6895 35.0316 31.691H32.5238C32.1775 31.6925 31.898 32.0135 31.8994 32.4081V41.1555H30.6455V29.5509C30.6442 29.1563 30.3612 28.8379 30.0149 28.8394H27.512ZM28.1365 30.268H29.3904V41.1555H28.1365V30.268ZM39.4618 32.4081H44.2067L47.8055 35.9238C46.9154 36.8432 45.7359 37.4068 44.4357 37.4068C41.8719 37.4068 39.7705 35.2315 39.4618 32.4081ZM33.1532 33.1196H34.4071V41.1555H33.1532V33.1196ZM23.1198 35.709H24.3736V41.1555H23.1198V35.709ZM19.3569 46.4026H51.9614V48.8594C51.9614 49.3435 51.668 49.6713 51.332 49.6713H19.9863C19.6503 49.6713 19.3569 49.3435 19.3569 48.8594V46.4026ZM33.2965 51.1013H38.0218L38.9059 54.1217H32.4124L33.2965 51.1013ZM29.0622 55.5517H42.2561C42.7633 55.5517 43.1818 56.0281 43.1818 56.6901C43.1818 57.3522 42.7633 57.8341 42.2561 57.8341H29.0622C28.555 57.8341 28.1365 57.3522 28.1365 56.6901C28.1365 56.0281 28.555 55.5517 29.0622 55.5517Z" fill="#FAFAFA"/>
</svg>
